<svg width="24" height="24" viewBox="0 0 24 24" fill="none" xmlns="http://www.w3.org/2000/svg">
<path d="M7.5 7.66952V6.69952C7.5 4.44952 9.31 2.23952 11.56 2.02952C14.24 1.76952 16.5 3.87952 16.5 6.50952V7.88952" stroke="url(#paint0_linear_1489_7082)" stroke-width="2" stroke-miterlimit="10" stroke-linecap="round" stroke-linejoin="round"/>
<path d="M9.00007 22H15.0001C19.0201 22 19.7401 20.39 19.9501 18.43L20.7001 12.43C20.9701 9.99 20.2701 8 16.0001 8H8.00007C3.73007 8 3.03007 9.99 3.30007 12.43L4.05007 18.43C4.26007 20.39 4.98007 22 9.00007 22Z" stroke="url(#paint1_linear_1489_7082)" stroke-width="2" stroke-miterlimit="10" stroke-linecap="round" stroke-linejoin="round"/>
<path d="M15.4955 12H15.5045" stroke="url(#paint2_linear_1489_7082)" stroke-width="2" stroke-linecap="round" stroke-linejoin="round"/>
<path d="M8.49451 12H8.50349" stroke="url(#paint3_linear_1489_7082)" stroke-width="2" stroke-linecap="round" stroke-linejoin="round"/>
<defs>
<linearGradient id="paint0_linear_1489_7082" x1="16.5" y1="4.94867" x2="7.5" y2="4.94867" gradientUnits="userSpaceOnUse">
<stop stop-color="#805B3C"/>
<stop offset="1" stop-color="#D3BAA4"/>
</linearGradient>
<linearGradient id="paint1_linear_1489_7082" x1="20.7509" y1="15" x2="3.24927" y2="15" gradientUnits="userSpaceOnUse">
<stop stop-color="#805B3C"/>
<stop offset="1" stop-color="#D3BAA4"/>
</linearGradient>
<linearGradient id="paint2_linear_1489_7082" x1="15.999" y1="12" x2="15.001" y2="12" gradientUnits="userSpaceOnUse">
<stop stop-color="#805B3C"/>
<stop offset="1" stop-color="#D3BAA4"/>
</linearGradient>
<linearGradient id="paint3_linear_1489_7082" x1="8.998" y1="12" x2="8" y2="12" gradientUnits="userSpaceOnUse">
<stop stop-color="#805B3C"/>
<stop offset="1" stop-color="#D3BAA4"/>
</linearGradient>
</defs>
</svg>
