<svg width="24" height="24" viewBox="0 0 24 24" fill="none" xmlns="http://www.w3.org/2000/svg">
<path d="M19.96 8.95844C19.29 8.21844 18.28 7.78844 16.88 7.63844V6.87844C16.88 5.50844 16.3 4.18844 15.28 3.26844C14.25 2.32844 12.91 1.88844 11.52 2.01844C9.12999 2.24844 7.11999 4.55844 7.11999 7.05844V7.63844C5.71999 7.78844 4.70999 8.21844 4.03999 8.95844C3.06999 10.0384 3.09999 11.4784 3.20999 12.4784L3.90999 18.0484C4.11999 19.9984 4.90999 21.9984 9.20999 21.9984H14.79C19.09 21.9984 19.88 19.9984 20.09 18.0584L20.79 12.4684C20.9 11.4784 20.92 10.0384 19.96 8.95844ZM11.66 3.40844C12.66 3.31844 13.61 3.62844 14.35 4.29844C15.08 4.95844 15.49 5.89844 15.49 6.87844V7.57844H8.50999V7.05844C8.50999 5.27844 9.97999 3.56844 11.66 3.40844ZM8.41999 13.1484H8.40999C7.85999 13.1484 7.40999 12.6984 7.40999 12.1484C7.40999 11.5984 7.85999 11.1484 8.40999 11.1484C8.96999 11.1484 9.41999 11.5984 9.41999 12.1484C9.41999 12.6984 8.96999 13.1484 8.41999 13.1484ZM15.42 13.1484H15.41C14.86 13.1484 14.41 12.6984 14.41 12.1484C14.41 11.5984 14.86 11.1484 15.41 11.1484C15.97 11.1484 16.42 11.5984 16.42 12.1484C16.42 12.6984 15.97 13.1484 15.42 13.1484Z" fill="#A87646"/>
<circle cx="18" cy="6" r="4" fill="#2E1600"/>
</svg>
