<svg width="48" height="48" viewBox="0 0 48 48" fill="none" xmlns="http://www.w3.org/2000/svg">
<path d="M10 0.5H38C43.2467 0.5 47.5 4.75329 47.5 10V38C47.5 43.2467 43.2467 47.5 38 47.5H10C4.7533 47.5 0.5 43.2467 0.5 38V10C0.5 4.7533 4.75329 0.5 10 0.5Z" stroke="#AAAAAA"/>
<path d="M33.25 24H20.895M16.534 24H14.75M16.534 24C16.534 23.4218 16.7637 22.8673 17.1725 22.4585C17.5813 22.0497 18.1358 21.82 18.714 21.82C19.2922 21.82 19.8467 22.0497 20.2555 22.4585C20.6643 22.8673 20.894 23.4218 20.894 24C20.894 24.5782 20.6643 25.1327 20.2555 25.5415C19.8467 25.9503 19.2922 26.18 18.714 26.18C18.1358 26.18 17.5813 25.9503 17.1725 25.5415C16.7637 25.1327 16.534 24.5782 16.534 24ZM33.25 30.607H27.502M27.502 30.607C27.502 31.1853 27.2718 31.7404 26.8628 32.1493C26.4539 32.5583 25.8993 32.788 25.321 32.788C24.7428 32.788 24.1883 32.5573 23.7795 32.1485C23.3707 31.7397 23.141 31.1852 23.141 30.607M27.502 30.607C27.502 30.0287 27.2718 29.4746 26.8628 29.0656C26.4539 28.6567 25.8993 28.427 25.321 28.427C24.7428 28.427 24.1883 28.6567 23.7795 29.0655C23.3707 29.4743 23.141 30.0288 23.141 30.607M23.141 30.607H14.75M33.25 17.393H30.145M25.784 17.393H14.75M25.784 17.393C25.784 16.8148 26.0137 16.2603 26.4225 15.8515C26.8313 15.4427 27.3858 15.213 27.964 15.213C28.2503 15.213 28.5338 15.2694 28.7983 15.3789C29.0627 15.4885 29.3031 15.6491 29.5055 15.8515C29.7079 16.0539 29.8685 16.2943 29.9781 16.5587C30.0876 16.8232 30.144 17.1067 30.144 17.393C30.144 17.6793 30.0876 17.9628 29.9781 18.2272C29.8685 18.4917 29.7079 18.7321 29.5055 18.9345C29.3031 19.1369 29.0627 19.2975 28.7983 19.4071C28.5338 19.5166 28.2503 19.573 27.964 19.573C27.3858 19.573 26.8313 19.3433 26.4225 18.9345C26.0137 18.5257 25.784 17.9712 25.784 17.393Z" stroke="#835F40" stroke-width="1.5" stroke-miterlimit="10" stroke-linecap="round"/>
<circle cx="32" cy="16" r="4" fill="#2E1600"/>
</svg>
