<?xml version="1.0" encoding="UTF-8"?>
<svg version="1.1" xmlns="http://www.w3.org/2000/svg" width="626" height="626">
<path d="M0 0 C206.58 0 413.16 0 626 0 C626 206.58 626 413.16 626 626 C419.42 626 212.84 626 0 626 C0 419.42 0 212.84 0 0 Z " fill="#E13930" transform="translate(0,0)"/>
<path d="M0 0 C1.26248755 -0.00935994 1.26248755 -0.00935994 2.55047989 -0.01890898 C5.38126583 -0.03491138 8.2111993 -0.02220661 11.04199219 -0.00964355 C13.06710311 -0.01506146 15.09221009 -0.02218224 17.11730957 -0.03088379 C22.62551996 -0.04915949 28.13343155 -0.04203205 33.64164734 -0.02936745 C39.39782535 -0.01926177 45.15397726 -0.02862634 50.91015625 -0.03491211 C60.57784636 -0.04219561 70.24541436 -0.03258235 79.91308594 -0.0135498 C91.10068166 0.00822021 102.28798584 0.00116934 113.47557449 -0.02085543 C123.06968309 -0.03898938 132.66370376 -0.04157756 142.25782394 -0.03110075 C147.9929355 -0.02485479 153.72790988 -0.02406044 159.4630127 -0.0372467 C164.85405673 -0.0487754 170.24472376 -0.04083401 175.63572693 -0.01766968 C177.61790846 -0.01236663 179.60012155 -0.01392347 181.58229065 -0.02272034 C184.28120471 -0.03359657 186.97889878 -0.02000887 189.67773438 0 C190.86386007 -0.01338433 190.86386007 -0.01338433 192.07394791 -0.02703905 C197.33847667 0.04905081 197.33847667 0.04905081 199.83578491 2.33921051 C201.30198814 5.50922986 201.04897367 8.37325585 200.76855469 11.76574707 C200.68829544 12.9185466 200.68829544 12.9185466 200.60641479 14.09463501 C199.61653158 26.85399337 197.86330228 39.55513268 196.23657227 52.24609375 C195.87418359 55.08567017 195.51819545 57.92603268 195.16232967 60.76643276 C193.5243799 73.83073573 191.83661138 86.88128594 189.82481384 99.89421082 C188.76985073 106.7807845 187.97052905 113.67673127 187.24606323 120.60568237 C186.84743416 124.39744833 186.42859984 128.18699705 186.01074219 131.97668457 C185.8756852 133.20224312 185.8756852 133.20224312 185.73789978 134.45256042 C184.59497895 144.77510381 183.400143 155.09137724 182.16763306 165.40359497 C181.90860797 167.58285238 181.65300403 169.76251939 181.40097046 171.94259644 C181.04436336 175.02153012 180.67548486 178.09876889 180.30371094 181.17590332 C180.20064636 182.08702881 180.09758179 182.9981543 179.99139404 183.93688965 C178.9651369 192.22721058 177.11015296 199.87631698 171.83886719 206.50793457 C171.17886719 206.50793457 170.51886719 206.50793457 169.83886719 206.50793457 C169.83886719 207.16793457 169.83886719 207.82793457 169.83886719 208.50793457 C161.38576903 213.51079403 154.7967209 215.38330684 145.02124023 215.23669434 C143.80178207 215.24238937 142.58232391 215.24808441 141.32591248 215.25395203 C138.01990842 215.26308435 134.71542772 215.24575259 131.40959525 215.2150929 C127.93224531 215.18849006 124.45492428 215.1940286 120.97749329 215.19517517 C115.14649022 215.19237808 109.31595962 215.16649339 103.48510742 215.12536621 C96.75817913 215.07809202 90.03176581 215.06237643 83.30468339 215.06457287 C76.11335604 215.06660314 68.92222512 215.0457723 61.73095727 215.01823306 C59.66959073 215.01186093 57.60825619 215.0097126 55.54688072 215.00851631 C51.70091125 215.00492718 47.85536417 214.97573202 44.00952148 214.94372559 C42.8753479 214.94508514 41.74117432 214.9464447 40.57263184 214.94784546 C34.52733277 214.87435192 30.18567202 214.38064508 24.83886719 211.50793457 C23.86949219 210.99230957 22.90011719 210.47668457 21.90136719 209.94543457 C21.22074219 209.47105957 20.54011719 208.99668457 19.83886719 208.50793457 C19.83886719 207.84793457 19.83886719 207.18793457 19.83886719 206.50793457 C19.17886719 206.50793457 18.51886719 206.50793457 17.83886719 206.50793457 C17.03768326 205.1593769 16.24845111 203.80371714 15.46386719 202.44543457 C15.02300781 201.69133301 14.58214844 200.93723145 14.12792969 200.16027832 C10.58224556 192.86476462 10.16498518 185.29933222 9.40136719 177.32043457 C8.58554982 169.26925334 7.74706443 161.24895786 6.46386719 153.25793457 C4.8111997 142.87217626 3.52129891 132.44153582 2.21386719 122.00793457 C2.10359192 121.13536011 1.99331665 120.26278564 1.87969971 119.36376953 C0.76115799 110.49924826 -0.33775562 101.65943263 -0.92822266 92.74035645 C-1.0975255 90.33862626 -1.0975255 90.33862626 -2.16113281 87.50793457 C-2.35075102 86.01192194 -2.50140169 84.51076189 -2.62597656 83.00793457 C-2.70396484 82.11977051 -2.78195313 81.23160645 -2.86230469 80.31652832 C-3.01721831 78.47548873 -3.17090815 76.63434565 -3.32324219 74.79309082 C-3.72899242 70.19458822 -4.26511506 65.69581458 -5.13378906 61.16027832 C-6.34297455 54.83297517 -7.00295262 48.47503416 -7.66113281 42.07043457 C-8.35242304 35.36643864 -9.08362404 28.70916958 -10.23535156 22.06652832 C-10.93542319 18.02222723 -11.45667207 14.12374214 -11.47363281 10.00793457 C-11.49039063 9.04887207 -11.50714844 8.08980957 -11.52441406 7.10168457 C-10.53715486 0.05286617 -6.22510185 -0.07024451 0 0 Z " fill="#FDFCFC" transform="translate(218.1611328125,245.4920654296875)"/>
<path d="M0 0 C10.87411151 6.41945212 18.27635638 14.41009392 22.5078125 26.48046875 C22.5078125 27.47046875 22.5078125 28.46046875 22.5078125 29.48046875 C23.39919922 29.45327759 23.39919922 29.45327759 24.30859375 29.42553711 C30.86165607 29.31406881 37.05413221 29.94071115 43.5078125 31.04296875 C44.53237549 31.21715332 45.55693848 31.39133789 46.61254883 31.57080078 C88.00714844 38.97980469 88.00714844 38.97980469 97.5078125 48.48046875 C97.73333488 51.172093 97.8321454 53.72716619 97.8203125 56.41796875 C97.83642578 57.14693359 97.85253906 57.87589844 97.86914062 58.62695312 C97.87405752 63.99128677 97.87405752 63.99128677 96.2282505 66.18953955 C93.15875523 68.49273273 89.28065173 67.88987547 85.58740234 67.86141968 C84.20240823 67.86843964 84.20240823 67.86843964 82.78943443 67.87560141 C79.68239533 67.88760792 76.57579271 67.87807207 73.46875 67.86865234 C71.24659975 67.87271553 69.02445151 67.87805598 66.80230713 67.88458252 C60.75697148 67.89829198 54.71178893 67.89294247 48.6664505 67.88344526 C42.34973223 67.87586746 36.03302736 67.88288903 29.71630859 67.88760376 C18.42686769 67.89341706 7.13750476 67.88407468 -4.15192056 67.86882575 C-14.39233061 67.85542209 -24.63263866 67.85775004 -34.87304688 67.87158203 C-46.75887544 67.88762897 -58.64464199 67.8936167 -70.53048515 67.88474524 C-76.82448655 67.88006013 -83.11841763 67.87946686 -89.41241455 67.88935471 C-95.32868724 67.89799936 -101.24476664 67.89204824 -107.16101837 67.87467194 C-109.33670988 67.8706937 -111.51241757 67.87186384 -113.68810272 67.87845993 C-116.64954973 67.88661273 -119.61037063 67.87642981 -122.57177734 67.86141968 C-123.44034678 67.86811184 -124.30891621 67.87480401 -125.20380592 67.88169897 C-131.03762381 67.82402766 -131.03762381 67.82402766 -133.20603371 66.18514502 C-135.37263964 63.31351199 -135.00455305 59.99604971 -134.9921875 56.54296875 C-135.03472656 55.46885742 -135.03472656 55.46885742 -135.078125 54.37304688 C-135.09159224 50.74025884 -134.86196032 48.8902543 -132.3984375 46.16015625 C-129.18470179 44.30275524 -125.97134441 42.8093101 -122.4921875 41.54296875 C-121.80068604 41.28918457 -121.10918457 41.03540039 -120.39672852 40.77392578 C-107.41380852 36.18801185 -93.82508781 33.61066099 -80.3046875 31.16796875 C-78.90754517 30.91055908 -78.90754517 30.91055908 -77.48217773 30.64794922 C-71.43210645 29.60657466 -65.6268624 29.27910093 -59.4921875 29.48046875 C-59.399375 28.27390625 -59.399375 28.27390625 -59.3046875 27.04296875 C-56.83314219 16.20619314 -48.96521622 7.5135501 -39.8671875 1.54296875 C-28.15605431 -5.72068131 -12.34705244 -6.13913332 0 0 Z " fill="#FCFCFB" transform="translate(331.4921875,164.51953125)"/>
<path d="M0 0 C3.88980892 1.0014044 5.16364501 2.10728861 7.23046875 5.57421875 C7.43066406 8.28051758 7.43066406 8.28051758 7.37109375 11.46875 C7.35312744 12.63196777 7.33516113 13.79518555 7.31665039 14.99365234 C7.28821045 16.17523926 7.25977051 17.35682617 7.23046875 18.57421875 C7.21298584 19.6307666 7.19550293 20.68731445 7.17749023 21.77587891 C6.90866468 35.7656912 6.01605308 49.58061563 4.45996094 63.48266602 C2.75224131 79.66999638 2.09773696 95.93916709 1.32080078 112.19287109 C1.26284836 113.34440674 1.20489594 114.49594238 1.14518738 115.68237305 C1.03592269 117.85489247 0.93306917 120.02774764 0.83784485 122.20092773 C0.0675101 137.27073131 0.0675101 137.27073131 -4.45703125 141.57421875 C-8.40531418 143.95808769 -10.23782748 144.38345157 -14.76953125 143.57421875 C-17.73358975 141.76654182 -20.19150798 139.7302653 -21.76953125 136.57421875 C-21.82193294 135.04515962 -21.80452296 133.51349426 -21.75390625 131.984375 C-21.72127686 130.99703369 -21.68864746 130.00969238 -21.6550293 128.99243164 C-21.58795776 127.33135376 -21.58795776 127.33135376 -21.51953125 125.63671875 C-21.4728833 124.4448999 -21.42623535 123.25308105 -21.37817383 122.02514648 C-20.84383352 109.60114931 -19.97885434 97.20169187 -19.06518555 84.80053711 C-18.28041363 74.10829137 -17.56897849 63.41498148 -16.94579887 52.71205711 C-16.70365269 48.58647016 -16.45162802 44.46147208 -16.19982243 40.33646488 C-15.99335314 36.93768421 -15.79391676 33.53876758 -15.60971069 30.13870239 C-15.39961781 26.31653887 -15.16695333 22.49634056 -14.9296875 18.67578125 C-14.87235443 17.52562027 -14.81502136 16.37545929 -14.75595093 15.19044495 C-14.11037825 5.40947708 -14.11037825 5.40947708 -9.76953125 1.57421875 C-6.02873493 -0.91964546 -4.29999964 -0.65236536 0 0 Z " fill="#E44036" transform="translate(369.76953125,281.42578125)"/>
<path d="M0 0 C3.70390021 2.02666238 5.65363011 3.48044516 8 7 C8.35917026 9.98811771 8.61006033 12.90649486 8.78125 15.90625 C8.83958511 16.80608109 8.89792023 17.70591217 8.95802307 18.63301086 C9.14731629 21.58819977 9.32372432 24.54400845 9.5 27.5 C9.62876091 29.54781527 9.75824265 31.59558533 9.88842773 33.64331055 C10.71373916 46.74597565 11.4577135 59.85337031 12.18112183 72.96200562 C12.69537034 82.25522051 13.29338191 91.53649143 14.0625 100.8125 C14.14185791 101.77325439 14.22121582 102.73400879 14.30297852 103.72387695 C14.60506255 107.19863749 14.93037945 110.60699702 15.5390625 114.04296875 C16.18684951 118.19868709 16.26350761 122.29971947 16.3125 126.5 C16.34150391 127.32886719 16.37050781 128.15773438 16.40039062 129.01171875 C16.45724433 134.51340802 15.71251276 137.66539051 12 142 C8.83226274 144.11182484 8.2144984 144.29402035 4.625 144 C3.87476563 143.95875 3.12453125 143.9175 2.3515625 143.875 C-1.30381766 142.51485855 -3.25632224 140.38473908 -5 137 C-6.03701308 132.91181963 -6.39869972 128.82142572 -6.75 124.625 C-6.86867432 123.38024902 -6.98734863 122.13549805 -7.10961914 120.85302734 C-7.99800202 110.84045909 -8.3129509 100.83703443 -8.5144043 90.78930664 C-8.89423274 74.51215434 -10.31283495 58.29404442 -11.62866211 42.07080078 C-12.13838962 35.71697216 -12.59606406 29.36141941 -13 23 C-13.05919617 22.11447449 -13.11839233 21.22894897 -13.17938232 20.31658936 C-13.32213757 17.95949575 -13.41931137 15.6061389 -13.49609375 13.24609375 C-13.57428345 11.33654907 -13.57428345 11.33654907 -13.65405273 9.38842773 C-12.26956501 2.21586145 -7.19806345 -1.28536847 0 0 Z " fill="#E44138" transform="translate(262,281)"/>
<path d="M0 0 C3.95403662 0.26360244 5.65370756 0.86143155 8.75 3.25 C10.97715419 6.59073128 11.00233357 7.65271998 11.01069641 11.55038452 C11.01778122 12.6495369 11.02486603 13.74868927 11.03216553 14.88114929 C11.02968811 16.08745499 11.02721069 17.29376068 11.0246582 18.53662109 C11.0323246 20.44180763 11.0323246 20.44180763 11.04014587 22.38548279 C11.05354862 25.87109609 11.05411304 29.35660104 11.05158257 32.84223509 C11.0505135 35.7522426 11.0553947 38.66222813 11.060188 41.57223094 C11.07128806 48.43847012 11.0717181 55.30465461 11.06567383 62.17089844 C11.05963561 69.25265927 11.07193992 76.33422135 11.0932439 83.41594827 C11.11086365 89.49672887 11.11686059 95.57744622 11.11360615 101.6582514 C11.11179339 105.28968242 11.11442845 108.92097172 11.12832069 112.55237961 C11.14323718 116.6032474 11.13392569 120.65371126 11.12231445 124.70458984 C11.13378006 126.50797569 11.13378006 126.50797569 11.14547729 128.34779358 C11.13846298 129.4525856 11.13144867 130.55737762 11.1242218 131.69564819 C11.12438954 132.65318182 11.12455729 133.61071545 11.12473011 134.59726524 C10.67683153 137.7679636 9.59211216 139.65419706 7.75 142.25 C4.32905881 144.81570589 0.90226516 144.68708054 -3.25 144.25 C-6.00329021 142.45437595 -7.77627461 141.19745078 -9.25 138.25 C-9.35376485 136.51297558 -9.39385294 134.77199809 -9.40390015 133.03190613 C-9.41680084 131.37261833 -9.41680084 131.37261833 -9.42996216 129.67980957 C-9.43422211 128.46055786 -9.43848206 127.24130615 -9.44287109 125.98510742 C-9.45104858 124.70537552 -9.45922607 123.42564362 -9.46765137 122.10713196 C-9.49387464 117.85659899 -9.50917905 113.60605616 -9.5234375 109.35546875 C-9.52879701 107.89261684 -9.53417452 106.429765 -9.53956985 104.96691322 C-9.56119882 98.88222069 -9.57993585 92.79753081 -9.59119225 86.71280956 C-9.60743376 77.99052181 -9.64061559 69.26867937 -9.69759309 60.54655951 C-9.73628398 54.41485688 -9.75582387 48.2832734 -9.76111281 42.15145189 C-9.76476746 38.48855945 -9.77679952 34.82614194 -9.80921555 31.16338158 C-9.84486795 27.07634339 -9.8409276 22.99026307 -9.83349609 18.90307617 C-9.84990143 17.68989716 -9.86630676 16.47671814 -9.88320923 15.22677612 C-9.8151069 6.10126998 -9.8151069 6.10126998 -6.77603149 3.02168274 C-5.9424411 2.43702744 -5.10885071 1.85237213 -4.25 1.25 C-3.25 0.25 -3.25 0.25 0 0 Z " fill="#E13E35" transform="translate(312.25,280.75)"/>
<path d="M0 0 C206.25 0 412.5 0 625 0 C625 0.66 625 1.32 625 2 C316.615 2.495 316.615 2.495 2 3 C2 8.28 2 13.56 2 19 C1.34 19.33 0.68 19.66 0 20 C0 13.4 0 6.8 0 0 Z " fill="#F1604D" transform="translate(0,0)"/>
<path d="M0 0 C2.30443067 2.1391727 4.34028688 4.32151988 6 7 C6 7.66 6 8.32 6 9 C-7.86 9 -21.72 9 -36 9 C-33.37722402 2.44306004 -29.43867032 -1.28066484 -23.125 -4.4375 C-14.23695743 -6.03734766 -7.5648692 -5.22521894 0 0 Z " fill="#D52A26" transform="translate(328,183)"/>
<path d="M0 0 C68.64 0 137.28 0 208 0 C208 0.66 208 1.32 208 2 C139.69 2.33 71.38 2.66 1 3 C0.67 2.01 0.34 1.02 0 0 Z " fill="#F03433" transform="translate(208,244)"/>
<path d="M0 0 C1.59439911 0.01055923 1.59439911 0.01055923 3.2210083 0.02133179 C4.97751205 0.04075081 4.97751205 0.04075081 6.76950073 0.06056213 C8.61336365 0.07497345 8.61336365 0.07497345 10.49447632 0.0896759 C13.870337 0.11705599 17.24609917 0.14895172 20.62189722 0.1828258 C24.14794563 0.21714967 27.67404031 0.24574161 31.20013428 0.27493286 C37.87955948 0.33110487 44.55892674 0.39245676 51.23828876 0.4556542 C58.84154215 0.52734207 66.44484197 0.59327894 74.04815125 0.65872467 C89.69084274 0.7934989 105.33345989 0.93552154 120.9760437 1.08229065 C117.84365449 2.91128031 115.57646486 3.33039717 111.96627808 3.32279968 C110.45215332 3.32692368 110.45215332 3.32692368 108.90744019 3.33113098 C107.80601685 3.32394043 106.70459351 3.31674988 105.5697937 3.30934143 C104.4052063 3.30963348 103.2406189 3.30992554 102.04074097 3.31022644 C98.18576644 3.30883164 94.33098454 3.29325978 90.4760437 3.27760315 C87.80091016 3.27387261 85.12578733 3.27092734 82.45065308 3.26902771 C76.12314339 3.26281163 69.79570282 3.24640295 63.46822357 3.22632873 C56.28040523 3.20401493 49.09258372 3.19298087 41.90473938 3.18293786 C27.71350881 3.16288044 13.52232936 3.12995708 -0.66885376 3.08787727 C-2.78721613 3.08285223 -4.90558797 3.08229065 -7.0239563 3.08229065 C-7.0239563 2.42229065 -7.0239563 1.76229065 -7.0239563 1.08229065 C-4.50446775 -0.17745363 -2.81984604 -0.02522725 0 0 Z " fill="#F65953" transform="translate(251.02395629882813,458.91770935058594)"/>
<path d="M0 0 C0.33 0 0.66 0 1 0 C1.0501123 0.83772949 1.10022461 1.67545898 1.15185547 2.53857422 C1.34203104 5.64391277 1.54049861 8.74857733 1.74462891 11.85302734 C1.83129849 13.19721743 1.9146512 14.54162563 1.99462891 15.88623047 C2.1101028 17.81792334 2.23846382 19.7488323 2.3671875 21.6796875 C2.44050293 22.84226074 2.51381836 24.00483398 2.58935547 25.20263672 C2.73526138 28.13320033 2.73526138 28.13320033 5 30 C7.43252661 30.46162427 7.43252661 30.46162427 10.125 30.625 C11.03507812 30.69976562 11.94515625 30.77453125 12.8828125 30.8515625 C13.58148438 30.90054687 14.28015625 30.94953125 15 31 C15 31.66 15 32.32 15 33 C11.85088521 34.57455739 9.47991184 34.34799118 6 34 C3.02327416 32.22719439 0.57195993 30.14391985 -1 27 C-1.01633666 24.96581093 -0.96438346 22.93089555 -0.87890625 20.8984375 C-0.83056641 19.68671875 -0.78222656 18.475 -0.73242188 17.2265625 C-0.67634766 15.95554687 -0.62027344 14.68453125 -0.5625 13.375 C-0.51029297 12.09625 -0.45808594 10.8175 -0.40429688 9.5 C-0.2743123 6.333103 -0.13933598 3.16649713 0 0 Z " fill="#E0605A" transform="translate(349,391)"/>
<path d="M0 0 C0.99 0 1.98 0 3 0 C3 0.66 3 1.32 3 2 C15.54 2 28.08 2 41 2 C41 2.66 41 3.32 41 4 C27.14 4 13.28 4 -1 4 C-0.67 2.68 -0.34 1.36 0 0 Z " fill="#ED1F1D" transform="translate(293,188)"/>
<path d="M0 0 C0.33 0 0.66 0 1 0 C1.33896268 2.83275953 1.67129694 5.66604661 2 8.5 C2.14308594 9.68722656 2.14308594 9.68722656 2.2890625 10.8984375 C2.87107882 15.97029404 3.09367085 20.89493859 3 26 C2.34 26 1.68 26 1 26 C-1.25145183 17.69777139 -2.54090517 8.39515067 0 0 Z " fill="#EE5143" transform="translate(227,418)"/>
<path d="M0 0 C2.64 0 5.28 0 8 0 C8.33 1.32 8.66 2.64 9 4 C11.31 4.66 13.62 5.32 16 6 C15.34 6.66 14.68 7.32 14 8 C8.52063832 7.73271406 3.86948337 5.32653094 -1 3 C-0.67 2.01 -0.34 1.02 0 0 Z " fill="#DC2F29" transform="translate(408,200)"/>
<path d="M0 0 C0.66 0 1.32 0 2 0 C2 1.32 2 2.64 2 4 C-3.57067277 5.59162079 -8.21101581 6.20674944 -14 6 C-14 5.34 -14 4.68 -14 4 C-12.02 4 -10.04 4 -8 4 C-8 3.34 -8 2.68 -8 2 C-5.36 2 -2.72 2 0 2 C0 1.34 0 0.68 0 0 Z " fill="#DF2E29" transform="translate(232,196)"/>
<path d="M0 0 C-1.67517239 3.53647504 -2.49280817 4.7911563 -6.1875 6.3125 C-7.5796875 6.6528125 -7.5796875 6.6528125 -9 7 C-9 6.67 -9 6.34 -9 6 C-11.97 5.505 -11.97 5.505 -15 5 C-12.62383533 2.62383533 -10.64650479 1.95931819 -7.5 0.8125 C-6.5203125 0.44769531 -5.540625 0.08289063 -4.53125 -0.29296875 C-2 -1 -2 -1 0 0 Z " fill="#ED534B" transform="translate(385,457)"/>
<path d="M0 0 C0 0.33 0 0.66 0 1 C-0.57967529 1.11069824 -1.15935059 1.22139648 -1.7565918 1.33544922 C-4.40124419 1.84349738 -7.04435393 2.35917495 -9.6875 2.875 C-11.05551758 3.13603516 -11.05551758 3.13603516 -12.45117188 3.40234375 C-16.85849706 4.26778215 -20.85156571 5.24005818 -25 7 C-28.3125 7.125 -28.3125 7.125 -31 7 C-27.72175626 3.72175626 -23.30042063 3.40920156 -18.875 2.375 C-17.48667969 2.03082031 -17.48667969 2.03082031 -16.0703125 1.6796875 C-10.56778889 0.37400393 -5.65263038 -0.25270583 0 0 Z " fill="#CA1B14" transform="translate(282,97)"/>
<path d="M0 0 C0.33 0 0.66 0 1 0 C1.19672365 1.72814161 1.38196799 3.45759197 1.5625 5.1875 C1.66691406 6.15042969 1.77132813 7.11335938 1.87890625 8.10546875 C1.99758751 10.94233377 1.67765639 13.25423671 1 16 C0.34 16 -0.32 16 -1 16 C-0.67 16.99 -0.34 17.98 0 19 C-1.65 19.66 -3.3 20.32 -5 21 C-4.566875 19.9790625 -4.566875 19.9790625 -4.125 18.9375 C-1.7215082 12.66171585 -0.5735002 6.65562069 0 0 Z " fill="#E55048" transform="translate(397,428)"/>
<path d="M0 0 C0.66 0 1.32 0 2 0 C2.08119503 2.24940295 2.13927819 4.49964871 2.1875 6.75 C2.22230469 8.00296875 2.25710937 9.2559375 2.29296875 10.546875 C1.98802939 14.14109357 1.45605371 15.44725126 -1 18 C-1.02684312 15.18743719 -1.04676188 12.37512759 -1.0625 9.5625 C-1.07087891 8.76005859 -1.07925781 7.95761719 -1.08789062 7.13085938 C-1.0965143 5.08704779 -1.0522815 3.04316098 -1 1 C-0.67 0.67 -0.34 0.34 0 0 Z " fill="#D34845" transform="translate(250,286)"/>
<path d="M0 0 C0.66 0 1.32 0 2 0 C2 0.66 2 1.32 2 2 C2.66 2 3.32 2 4 2 C4 2.66 4 3.32 4 4 C4.66 4 5.32 4 6 4 C6 3.34 6 2.68 6 2 C6.66 2 7.32 2 8 2 C8 2.66 8 3.32 8 4 C8.66 4 9.32 4 10 4 C10 4.66 10 5.32 10 6 C10.66 6.33 11.32 6.66 12 7 C7.87853942 7.32325181 5.6324266 7.39022067 2.0625 5.1875 C0 3 0 3 0 0 Z " fill="#E85149" transform="translate(304,418)"/>
<path d="M0 0 C0.33 0 0.66 0 1 0 C1 1.98 1 3.96 1 6 C1.66 6 2.32 6 3 6 C3 11.94 3 17.88 3 24 C2.67 24 2.34 24 2 24 C0.39385449 15.91191011 -0.26305952 8.2425317 0 0 Z " fill="#F4D8D5" transform="translate(207,250)"/>
<path d="M0 0 C0.33 0 0.66 0 1 0 C1.11604679 3.4372166 1.18719508 6.87393086 1.25 10.3125 C1.30027344 11.77719727 1.30027344 11.77719727 1.3515625 13.27148438 C1.36445313 14.20927734 1.37734375 15.14707031 1.390625 16.11328125 C1.4220459 17.40939331 1.4220459 17.40939331 1.45410156 18.73168945 C1 21 1 21 -1.02441406 22.80541992 C-2.0023291 23.39673706 -2.0023291 23.39673706 -3 24 C-3 22.68 -3 21.36 -3 20 C-2.34 20 -1.68 20 -1 20 C-1.01160156 18.80761719 -1.02320313 17.61523438 -1.03515625 16.38671875 C-1.04453592 14.82031406 -1.05363593 13.25390769 -1.0625 11.6875 C-1.07506836 10.50897461 -1.07506836 10.50897461 -1.08789062 9.30664062 C-1.09111328 8.54931641 -1.09433594 7.79199219 -1.09765625 7.01171875 C-1.10289307 6.31522217 -1.10812988 5.61872559 -1.11352539 4.90112305 C-1 3 -1 3 0 0 Z " fill="#EE4F48" transform="translate(321,400)"/>
<path d="M0 0 C0.33 0 0.66 0 1 0 C1.20612487 5.77149626 0.74451341 10.47570753 -1 16 C-1.66 16.33 -2.32 16.66 -3 17 C-2.88597936 14.72858891 -2.75841495 12.45785448 -2.625 10.1875 C-2.55539062 8.92292969 -2.48578125 7.65835937 -2.4140625 6.35546875 C-2 3 -2 3 0 0 Z " fill="#E75E57" transform="translate(369,404)"/>
<path d="M0 0 C5.02254631 -0.2954439 7.89542386 0.01485372 12 3 C11.67 4.32 11.34 5.64 11 7 C10.34 7 9.68 7 9 7 C9 6.34 9 5.68 9 5 C8.34 5 7.68 5 7 5 C7 4.34 7 3.68 7 3 C4.69 2.34 2.38 1.68 0 1 C0 0.67 0 0.34 0 0 Z " fill="#D83D38" transform="translate(309,281)"/>
<path d="M0 0 C5.71658336 -0.45732667 8.48649253 0.47726246 13 4 C11.68 4.33 10.36 4.66 9 5 C9 4.34 9 3.68 9 3 C6.03 3 3.06 3 0 3 C0 2.01 0 1.02 0 0 Z " fill="#DD4946" transform="translate(255,281)"/>
<path d="M0 0 C0.99 0.33 1.98 0.66 3 1 C0.20472045 3.63085134 -1.30571912 4.93193325 -5.1875 5.3125 C-8 5 -8 5 -10 4 C-10 3.34 -10 2.68 -10 2 C-9.04287109 1.90912109 -9.04287109 1.90912109 -8.06640625 1.81640625 C-6.82697266 1.69072266 -6.82697266 1.69072266 -5.5625 1.5625 C-4.73878906 1.48128906 -3.91507812 1.40007812 -3.06640625 1.31640625 C-1.01337975 1.21069185 -1.01337975 1.21069185 0 0 Z " fill="#E6524D" transform="translate(273,420)"/>
<path d="M0 0 C0.33 0 0.66 0 1 0 C0.67 5.94 0.34 11.88 0 18 C-2.72664811 12.54670377 -2.89685839 7.74662882 -1 1.9375 C-0.67 1.298125 -0.34 0.65875 0 0 Z " fill="#EFE9E7" transform="translate(418,250)"/>
<path d="M0 0 C0.33 0.66 0.66 1.32 1 2 C4.96 2 8.92 2 13 2 C13 2.66 13 3.32 13 4 C8.38 4 3.76 4 -1 4 C-0.67 2.68 -0.34 1.36 0 0 Z " fill="#EB201C" transform="translate(355,190)"/>
<path d="M0 0 C1.3357457 3.77371512 0.72408671 6.85831347 0.0625 10.75 C-0.13214844 11.92046875 -0.32679688 13.0909375 -0.52734375 14.296875 C-0.68332031 15.18890625 -0.83929688 16.0809375 -1 17 C-3.29013653 13.5647952 -3.17842973 12.014669 -3 8 C-2.34 8 -1.68 8 -1 8 C-1.020625 7.05125 -1.04125 6.1025 -1.0625 5.125 C-1 2 -1 2 0 0 Z " fill="#F1E2DD" transform="translate(409,328)"/>
<path d="M0 0 C1.37562854 1.28965176 2.70766393 2.62689293 4 4 C4 4.66 4 5.32 4 6 C4.66 6 5.32 6 6 6 C6 6.66 6 7.32 6 8 C6.99 8.33 7.98 8.66 9 9 C7.68 9.33 6.36 9.66 5 10 C5 9.34 5 8.68 5 8 C4.01 8 3.02 8 2 8 C0.23537317 4.91190305 0 3.76687864 0 0 Z " fill="#EB5753" transform="translate(232,446)"/>
<path d="M0 0 C0.66 0 1.32 0 2 0 C2 2.64 2 5.28 2 8 C0.68 8 -0.64 8 -2 8 C-2.20086443 4.28400809 -2.1519437 3.22791555 0 0 Z " fill="#E42B22" transform="translate(422,248)"/>
<path d="M0 0 C0.90492188 0.02320313 1.80984375 0.04640625 2.7421875 0.0703125 C4.10730469 0.09738281 4.10730469 0.09738281 5.5 0.125 C6.19867188 0.14820313 6.89734375 0.17140625 7.6171875 0.1953125 C7.6171875 1.5153125 7.6171875 2.8353125 7.6171875 4.1953125 C7.1221875 4.0509375 6.6271875 3.9065625 6.1171875 3.7578125 C2.63965828 2.97536843 -0.84236373 2.60836486 -4.3828125 2.1953125 C-2.3828125 0.1953125 -2.3828125 0.1953125 0 0 Z " fill="#D42316" transform="translate(328.3828125,159.8046875)"/>
<path d="M0 0 C2.97 0.99 5.94 1.98 9 3 C8.67 3.99 8.34 4.98 8 6 C3.05 4.02 3.05 4.02 -2 2 C-1.34 1.34 -0.68 0.68 0 0 Z " fill="#D63B35" transform="translate(327,161)"/>
<path d="M0 0 C2.64 0 5.28 0 8 0 C8 0.66 8 1.32 8 2 C5.04335481 3.4783226 2.25770263 3.06032783 -1 3 C-0.67 2.01 -0.34 1.02 0 0 Z " fill="#E55551" transform="translate(356,422)"/>
<path d="M0 0 C0.33 0.66 0.66 1.32 1 2 C-2.66666667 2 -6.33333333 2 -10 2 C-10 1.34 -10 0.68 -10 0 C-6.64338305 -1.67830848 -3.63864406 -0.6353188 0 0 Z " fill="#EC5146" transform="translate(254,460)"/>
<path d="M0 0 C0.66 0 1.32 0 2 0 C2.69699552 1.45381897 3.38233866 2.91322953 4.0625 4.375 C4.63677734 5.59316406 4.63677734 5.59316406 5.22265625 6.8359375 C5.47917969 7.55007812 5.73570312 8.26421875 6 9 C5.67 9.66 5.34 10.32 5 11 C4.67 9.68 4.34 8.36 4 7 C3.34 7 2.68 7 2 7 C2 6.01 2 5.02 2 4 C1.34 4 0.68 4 0 4 C0 2.68 0 1.36 0 0 Z " fill="#E8DAD8" transform="translate(348,182)"/>
<path d="M0 0 C0.99 0 1.98 0 3 0 C3.625 1.8125 3.625 1.8125 4 4 C3.01 5.485 3.01 5.485 2 7 C1.34 7 0.68 7 0 7 C0 4.69 0 2.38 0 0 Z " fill="#D72420" transform="translate(274,176)"/>
<path d="M0 0 C1.32 0 2.64 0 4 0 C4 1.98 4 3.96 4 6 C3.67 5.34 3.34 4.68 3 4 C0.97536745 3.34786708 0.97536745 3.34786708 -1 3 C-0.67 2.01 -0.34 1.02 0 0 Z " fill="#DA271F" transform="translate(348,176)"/>
<path d="M0 0 C1 3 1 3 -0.4375 6.1875 C-1.2109375 7.5796875 -1.2109375 7.5796875 -2 9 C-2.33 9 -2.66 9 -3 9 C-2.67 6.69 -2.34 4.38 -2 2 C-1.34 2 -0.68 2 0 2 C0 1.34 0 0.68 0 0 Z " fill="#F1E6DC" transform="translate(395,438)"/>
<path d="M0 0 C-3.26545761 1.88391785 -6.28111761 2.49287967 -10 3 C-10 2.34 -10 1.68 -10 1 C-6.78548731 -0.60725635 -3.56387464 -0.05748185 0 0 Z " fill="#CF3938" transform="translate(222,202)"/>
<path d="M0 0 C6.75 -0.125 6.75 -0.125 9 1 C9 1.66 9 2.32 9 3 C5.65626525 2.44271087 2.96687001 1.64826111 0 0 Z " fill="#D64948" transform="translate(309,281)"/>
</svg>
