<svg width="24" height="24" viewBox="0 0 24 24" fill="none" xmlns="http://www.w3.org/2000/svg">
<path d="M0 4.5V6H14.25V17.25H9.633C9.2985 15.9607 8.139 15 6.75 15C5.361 15 4.2015 15.9607 3.867 17.25H3V13.5H1.5V18.75H3.867C4.2015 20.0393 5.361 21 6.75 21C8.139 21 9.2985 20.0393 9.633 18.75H15.867C16.2015 20.0393 17.361 21 18.75 21C20.139 21 21.2985 20.0393 21.633 18.75H24V12.633L23.9528 12.5153L22.4528 8.01525L22.29 7.5H15.75V4.5H0ZM0.75 7.5V9H7.5V7.5H0.75ZM15.75 9H21.2108L22.5 12.8438V17.25H21.633C21.2985 15.9607 20.139 15 18.75 15C17.361 15 16.2015 15.9607 15.867 17.25H15.75V9ZM1.5 10.5V12H6V10.5H1.5ZM6.75 16.5C7.58775 16.5 8.25 17.1622 8.25 18C8.25 18.8378 7.58775 19.5 6.75 19.5C5.91225 19.5 5.25 18.8378 5.25 18C5.25 17.1622 5.91225 16.5 6.75 16.5ZM18.75 16.5C19.5877 16.5 20.25 17.1622 20.25 18C20.25 18.8378 19.5877 19.5 18.75 19.5C17.9123 19.5 17.25 18.8378 17.25 18C17.25 17.1622 17.9123 16.5 18.75 16.5Z" fill="#4F4F4F"/>
<g clip-path="url(#clip0_474_20452)">
<path fill-rule="evenodd" clip-rule="evenodd" d="M18.9997 9.16536C16.6984 9.16536 14.833 7.29995 14.833 4.9987C14.833 2.69745 16.6984 0.832031 18.9997 0.832031C21.3009 0.832031 23.1663 2.69745 23.1663 4.9987C23.1663 7.29995 21.3009 9.16536 18.9997 9.16536ZM18.5093 5.89036L17.3572 4.73745L16.9163 5.17828L18.2159 6.4787C18.2941 6.55681 18.4 6.60069 18.5105 6.60069C18.621 6.60069 18.727 6.55681 18.8051 6.4787L21.2851 3.99953L20.8426 3.55703L18.5093 5.89036Z" fill="#4F4F4F"/>
</g>
<defs>
<clipPath id="clip0_474_20452">
<rect width="10" height="10" fill="white" transform="translate(14)"/>
</clipPath>
</defs>
</svg>
