<svg width="95" height="16" viewBox="0 0 95 16" fill="none" xmlns="http://www.w3.org/2000/svg">
<path d="M8.62296 1.93872L9.76684 4.24537C9.92282 4.56647 10.3388 4.87446 10.6897 4.93343L12.763 5.28074C14.0889 5.50354 14.4008 6.47339 13.4454 7.43012L11.8336 9.05526C11.5606 9.33049 11.4112 9.86128 11.4956 10.2414L11.9571 12.2531C12.3211 13.8455 11.4826 14.4615 10.0853 13.6293L8.14202 12.4694C7.79106 12.2597 7.21262 12.2597 6.85516 12.4694L4.91187 13.6293C3.52103 14.4615 2.67612 13.8389 3.04008 12.2531L3.50153 10.2414C3.58602 9.86128 3.43654 9.33049 3.16357 9.05526L1.55175 7.43012C0.60285 6.47339 0.908316 5.50354 2.23417 5.28074L4.30744 4.93343C4.6519 4.87446 5.06786 4.56647 5.22384 4.24537L6.36771 1.93872C6.99164 0.687095 8.00553 0.687095 8.62296 1.93872Z" fill="#F8C600"/>
<path d="M28.623 1.93872L29.7668 4.24537C29.9228 4.56647 30.3388 4.87446 30.6897 4.93343L32.763 5.28074C34.0889 5.50354 34.4008 6.47339 33.4454 7.43012L31.8336 9.05526C31.5606 9.33049 31.4112 9.86128 31.4956 10.2414L31.9571 12.2531C32.3211 13.8455 31.4826 14.4615 30.0853 13.6293L28.142 12.4694C27.7911 12.2597 27.2126 12.2597 26.8552 12.4694L24.9119 13.6293C23.521 14.4615 22.6761 13.8389 23.0401 12.2531L23.5015 10.2414C23.586 9.86128 23.4365 9.33049 23.1636 9.05526L21.5517 7.43012C20.6028 6.47339 20.9083 5.50354 22.2342 5.28074L24.3074 4.93343C24.6519 4.87446 25.0679 4.56647 25.2238 4.24537L26.3677 1.93872C26.9916 0.687095 28.0055 0.687095 28.623 1.93872Z" fill="#F8C600"/>
<path d="M48.623 1.93872L49.7668 4.24537C49.9228 4.56647 50.3388 4.87446 50.6897 4.93343L52.763 5.28074C54.0889 5.50354 54.4008 6.47339 53.4454 7.43012L51.8336 9.05526C51.5606 9.33049 51.4112 9.86128 51.4956 10.2414L51.9571 12.2531C52.3211 13.8455 51.4826 14.4615 50.0853 13.6293L48.142 12.4694C47.7911 12.2597 47.2126 12.2597 46.8552 12.4694L44.9119 13.6293C43.521 14.4615 42.6761 13.8389 43.0401 12.2531L43.5015 10.2414C43.586 9.86128 43.4365 9.33049 43.1636 9.05526L41.5517 7.43012C40.6028 6.47339 40.9083 5.50354 42.2342 5.28074L44.3074 4.93343C44.6519 4.87446 45.0679 4.56647 45.2238 4.24537L46.3677 1.93872C46.9916 0.687095 48.0055 0.687095 48.623 1.93872Z" fill="#F8C600"/>
<path d="M68.623 1.93872L69.7668 4.24537C69.9228 4.56647 70.3388 4.87446 70.6897 4.93343L72.763 5.28074C74.0889 5.50354 74.4008 6.47339 73.4454 7.43012L71.8336 9.05526C71.5606 9.33049 71.4112 9.86128 71.4956 10.2414L71.9571 12.2531C72.3211 13.8455 71.4826 14.4615 70.0853 13.6293L68.142 12.4694C67.7911 12.2597 67.2126 12.2597 66.8552 12.4694L64.9119 13.6293C63.521 14.4615 62.6761 13.8389 63.0401 12.2531L63.5015 10.2414C63.586 9.86128 63.4365 9.33049 63.1636 9.05526L61.5517 7.43012C60.6028 6.47339 60.9083 5.50354 62.2342 5.28074L64.3074 4.93343C64.6519 4.87446 65.0679 4.56647 65.2238 4.24537L66.3677 1.93872C66.9916 0.687095 68.0055 0.687095 68.623 1.93872Z" fill="#F8C600"/>
<path d="M88.623 1.93872L89.7668 4.24537C89.9228 4.56647 90.3388 4.87446 90.6897 4.93343L92.763 5.28074C94.0889 5.50354 94.4008 6.47339 93.4454 7.43012L91.8336 9.05526C91.5606 9.33049 91.4112 9.86128 91.4956 10.2414L91.9571 12.2531C92.3211 13.8455 91.4826 14.4615 90.0853 13.6293L88.142 12.4694C87.7911 12.2597 87.2126 12.2597 86.8552 12.4694L84.9119 13.6293C83.521 14.4615 82.6761 13.8389 83.0401 12.2531L83.5015 10.2414C83.586 9.86128 83.4365 9.33049 83.1636 9.05526L81.5517 7.43012C80.6028 6.47339 80.9083 5.50354 82.2342 5.28074L84.3074 4.93343C84.6519 4.87446 85.0679 4.56647 85.2238 4.24537L86.3677 1.93872C86.9916 0.687095 88.0055 0.687095 88.623 1.93872Z" fill="#F8C600"/>
</svg>
