<svg width="32" height="32" viewBox="0 0 32 32" fill="none" xmlns="http://www.w3.org/2000/svg">
<g clip-path="url(#clip0_1303_7371)">
<path d="M0.682827 15.809C0.682077 18.4977 1.39008 21.1229 2.73633 23.4368L0.554077 31.3428L8.70808 29.2214C10.9634 30.4396 13.4903 31.0779 16.0581 31.0781H16.0648C24.5417 31.0781 31.4421 24.2337 31.4457 15.8211C31.4473 11.7445 29.8488 7.91125 26.9446 5.02728C24.0408 2.14356 20.179 0.554595 16.0642 0.552734C7.58633 0.552734 0.686452 7.39677 0.682952 15.809" fill="url(#paint0_linear_1303_7371)"/>
<path d="M0.13375 15.8035C0.132875 18.5889 0.86625 21.308 2.2605 23.7048L0 31.8942L8.44637 29.6967C10.7736 30.9558 13.3939 31.6196 16.0601 31.6206H16.067C24.848 31.6206 31.9963 24.53 32 15.8162C32.0015 11.5932 30.3455 7.62208 27.3375 4.63479C24.3291 1.64788 20.3291 0.00173643 16.067 0C7.2845 0 0.13725 7.08961 0.13375 15.8035ZM5.16388 23.292L4.8485 22.7953C3.52275 20.7036 2.823 18.2865 2.824 15.8045C2.82675 8.56174 8.76725 2.66915 16.072 2.66915C19.6095 2.67064 22.934 4.03895 25.4345 6.52155C27.9349 9.0044 29.3108 12.3049 29.3099 15.8152C29.3066 23.058 23.366 28.9513 16.067 28.9513H16.0618C13.6851 28.9501 11.3542 28.3168 9.3215 27.12L8.83775 26.8353L3.8255 28.1393L5.16388 23.292Z" fill="url(#paint1_linear_1303_7371)"/>
<path d="M12.0847 9.19759C11.7864 8.53986 11.4726 8.52658 11.1889 8.51505C10.9567 8.50513 10.6912 8.50587 10.4259 8.50587C10.1604 8.50587 9.72907 8.60497 9.36445 9.00001C8.99945 9.39542 7.97095 10.351 7.97095 12.2944C7.97095 14.2378 9.39757 16.1162 9.59645 16.38C9.79557 16.6433 12.3506 20.7591 16.3971 22.3425C19.7601 23.6584 20.4444 23.3967 21.1743 23.3307C21.9043 23.2649 23.5298 22.3754 23.8614 21.453C24.1933 20.5307 24.1933 19.7401 24.0938 19.5749C23.9943 19.4103 23.7288 19.3115 23.3307 19.114C22.9326 18.9165 20.9752 17.9608 20.6103 17.8289C20.2453 17.6972 19.9799 17.6315 19.7144 18.027C19.4489 18.4219 18.6866 19.3115 18.4542 19.5749C18.2221 19.839 17.9897 19.8718 17.5917 19.6742C17.1933 19.476 15.9112 19.0594 14.3901 17.7138C13.2066 16.6667 12.4076 15.3737 12.1753 14.9782C11.9431 14.5833 12.1504 14.3692 12.3501 14.1724C12.5289 13.9954 12.7483 13.7111 12.9476 13.4805C13.1461 13.2498 13.2123 13.0852 13.3451 12.8218C13.4779 12.5581 13.4114 12.3274 13.3121 12.1298C13.2123 11.9322 12.4387 9.97862 12.0847 9.19759Z" fill="#FEFEFE"/>
</g>
<defs>
<linearGradient id="paint0_linear_1303_7371" x1="1545.14" y1="3079.56" x2="1545.14" y2="0.552734" gradientUnits="userSpaceOnUse">
<stop stop-color="#1FAF38"/>
<stop offset="1" stop-color="#60D669"/>
</linearGradient>
<linearGradient id="paint1_linear_1303_7371" x1="1600" y1="3189.42" x2="1600" y2="0" gradientUnits="userSpaceOnUse">
<stop stop-color="#F9F9F9"/>
<stop offset="1" stop-color="white"/>
</linearGradient>
<clipPath id="clip0_1303_7371">
<rect width="32" height="32" fill="white"/>
</clipPath>
</defs>
</svg>
