<svg width="24" height="24" viewBox="0 0 24 24" fill="none" xmlns="http://www.w3.org/2000/svg">
<path d="M8.76 22.2705H8.89C13.33 22.2705 15.47 20.5205 15.84 16.6005C15.88 16.1905 15.58 15.8205 15.16 15.7805C14.76 15.7405 14.38 16.0505 14.34 16.4605C14.05 19.6005 12.57 20.7705 8.88 20.7705H8.75C4.68 20.7705 3.24 19.3305 3.24 15.2605V8.74047C3.24 4.67047 4.68 3.23047 8.75 3.23047H8.88C12.59 3.23047 14.07 4.42047 14.34 7.62047C14.39 8.03047 14.74 8.34047 15.16 8.30047C15.58 8.27047 15.88 7.90047 15.85 7.49047C15.51 3.51047 13.36 1.73047 8.89 1.73047H8.76C3.85 1.73047 1.75 3.83047 1.75 8.74047V15.2605C1.75 20.1705 3.85 22.2705 8.76 22.2705Z" fill="#4F4F4F"/>
<path d="M9 12.75H20.38C20.79 12.75 21.13 12.41 21.13 12C21.13 11.59 20.79 11.25 20.38 11.25H9C8.59 11.25 8.25 11.59 8.25 12C8.25 12.41 8.59 12.75 9 12.75Z" fill="#4F4F4F"/>
<path d="M18.15 16.0998C18.34 16.0998 18.53 16.0298 18.68 15.8798L22.03 12.5298C22.32 12.2398 22.32 11.7598 22.03 11.4698L18.68 8.11984C18.39 7.82984 17.91 7.82984 17.62 8.11984C17.33 8.40984 17.33 8.88984 17.62 9.17984L20.44 11.9998L17.62 14.8198C17.33 15.1098 17.33 15.5898 17.62 15.8798C17.76 16.0298 17.96 16.0998 18.15 16.0998Z" fill="#4F4F4F"/>
</svg>
