<svg width="24" height="24" viewBox="0 0 24 24" fill="none" xmlns="http://www.w3.org/2000/svg">
<path d="M3.51829 18.0959L11.2506 22.478C11.5257 22.6352 11.7959 22.7137 12.061 22.7137C12.3261 22.7137 12.5996 22.6352 12.8813 22.478L20.6041 18.0959C21.0562 17.8339 21.3983 17.5374 21.6306 17.2066C21.8631 16.876 21.9794 16.3603 21.9794 15.6594V7.87787C21.9794 7.36701 21.8829 6.94458 21.6897 6.61058C21.4963 6.2763 21.1934 5.98801 20.7812 5.74573L13.8242 1.79601C13.235 1.45544 12.649 1.28516 12.0661 1.28516C11.4833 1.28516 10.8937 1.45544 10.2974 1.79601L3.35115 5.74573C2.93201 5.9883 2.62572 6.27658 2.43229 6.61058C2.23915 6.94458 2.14258 7.36701 2.14258 7.87787V15.6594C2.14258 16.3603 2.26044 16.876 2.49615 17.2066C2.73186 17.5372 3.07258 17.8336 3.51829 18.0959ZM4.40244 16.799C4.11386 16.6353 3.91401 16.4633 3.80286 16.283C3.69144 16.103 3.63572 15.8787 3.63572 15.6102V8.19201L11.29 12.5643V20.7192L4.40244 16.799ZM19.7294 16.799L12.8324 20.7192V12.5643L20.4854 8.19201V15.6102C20.4854 15.8787 20.4297 16.103 20.3183 16.283C20.2069 16.463 20.0107 16.6352 19.7299 16.7994M12.0666 11.1894L4.48086 6.89516L7.51686 5.15644L15.1017 9.46959L12.0666 11.1894ZM16.684 8.57601L9.06915 4.27187L10.9557 3.20087C11.7026 2.77516 12.4427 2.77516 13.1762 3.20087L19.651 6.89516L16.684 8.57601Z" fill="#4F4F4F"/>
</svg>
