<svg width="25" height="25" viewBox="0 0 25 25" fill="none" xmlns="http://www.w3.org/2000/svg">
<path d="M13.4344 3.40807L15.1503 6.86805C15.3842 7.3497 16.0082 7.81168 16.5346 7.90015L19.6445 8.42111C21.6333 8.75531 22.1012 10.2101 20.6681 11.6452L18.2504 14.0829C17.841 14.4957 17.6167 15.2919 17.7435 15.862L18.4356 18.8797C18.9816 21.2683 17.724 22.1922 15.628 20.9439L12.713 19.2041C12.1866 18.8895 11.3189 18.8895 10.7827 19.2041L7.86781 20.9439C5.78154 22.1922 4.51418 21.2584 5.06012 18.8797L5.75229 15.862C5.87903 15.2919 5.65481 14.4957 5.24535 14.0829L2.82762 11.6452C1.40427 10.2101 1.86247 8.75531 3.85125 8.42111L6.96116 7.90015C7.47785 7.81168 8.10178 7.3497 8.33576 6.86805L10.0516 3.40807C10.9875 1.53064 12.5083 1.53064 13.4344 3.40807Z" fill="#F8C600" stroke="#FEFEFE" stroke-linecap="round" stroke-linejoin="round"/>
</svg>
