<svg width="24" height="24" viewBox="0 0 24 24" fill="none" xmlns="http://www.w3.org/2000/svg">
<g clip-path="url(#clip0_474_20504)">
<path d="M14.6371 8.26361L13.524 9.37649L11.8673 11.0335L10.7168 12.184L9.26359 13.6373L8.11259 14.7879L7.86306 15.0373L8.12712 15.3009L17.9459 5.48197H17.9464L17.6823 5.21835L16.6428 6.25801V3.38365C16.6428 3.2826 16.6019 3.18384 16.5304 3.11233C16.459 3.0409 16.36 3 16.2591 3H3.38373C3.28276 3 3.18378 3.04087 3.11241 3.11233C3.0409 3.18384 3 3.28257 3 3.38365V20.5851C3 20.6861 3.0409 20.7849 3.11241 20.8563C3.18376 20.9277 3.28274 20.9688 3.38373 20.9688H13.9137C14.0146 20.9688 14.1126 20.9284 14.184 20.8573L15.367 19.682L15.3685 19.6805L16.5308 18.5132C16.6018 18.4415 16.6427 18.3435 16.6427 18.2425V9.39199L15.8749 10.1597V17.4751H13.4343C13.3334 17.4751 13.2346 17.5161 13.163 17.5875C13.0917 17.6589 13.0507 17.7577 13.0507 17.8588V20.2013H3.76738V3.76727H15.8749V7.02547L14.6371 8.26361ZM13.818 18.2424H15.8615L13.818 20.215V18.2424Z" fill="#1A1713"/>
<path d="M14.7902 5.74609H5.48242V6.85903H14.7902V5.74609Z" fill="#1A1713"/>
<path d="M4.42969 9.37848H13.5241L14.6372 8.26562H4.42969V9.37848Z" fill="#1A1713"/>
<path d="M4.46582 12.1817H10.7173L11.8679 11.0312H4.46582V12.1817Z" fill="#1A1713"/>
<path d="M15.178 12.1817V11.0312H15.0025L13.8516 12.1817H15.178Z" fill="#1A1713"/>
<path d="M15.1772 14.7873V13.6367H12.3976L11.2471 14.7873H15.1772Z" fill="#1A1713"/>
<path d="M4.46582 14.7873H8.11316L9.26415 13.6367H4.46582V14.7873Z" fill="#1A1713"/>
<path d="M6.61434 17.3924L6.65171 17.3167L7.17981 16.2422H4.46582V17.3924H6.61434Z" fill="#1A1713"/>
<path d="M9.11685 16.852L8.0166 17.3924H12.5152V16.2422H9.79358L9.43114 16.605L9.43056 16.605V16.605L9.1671 16.3414L9.06763 16.2422H8.7762L9.15516 16.6212C9.18831 16.6541 9.20273 16.7004 9.19556 16.7464C9.18781 16.7925 9.15874 16.8313 9.11685 16.852Z" fill="#1A1713"/>
<path d="M15.8619 18.2422H13.8184V20.2148L15.8619 18.2422Z" fill="#F2F2F2"/>
<path d="M14.6373 8.26197L15.8751 7.02385V3.76562H3.76758V20.1997H13.0509V17.8572C13.0509 17.756 13.0918 17.6573 13.1632 17.5859C13.2348 17.5145 13.3335 17.4734 13.4345 17.4734H15.8751V10.158L16.6429 9.39035L19.2497 6.78359L14.4374 11.5957L15.0017 11.0318H15.1772V12.1823H13.8508L9.43044 16.6026L9.43103 16.6027L9.79346 16.2398H12.5151V17.39H8.01646L7.15187 17.8148L6.54665 18.112C6.49125 18.1391 6.42498 18.1281 6.3816 18.0846C6.33802 18.0408 6.32718 17.9747 6.35407 17.9193L6.61395 17.39H4.46543V16.2398H7.17945L7.6164 15.3496C7.63711 15.3075 7.67589 15.2785 7.72189 15.2709C7.76803 15.2634 7.81461 15.2781 7.84724 15.311L8.77609 16.2398H9.06748L9.16696 16.339L18.9861 6.52013L17.9461 5.4803L8.1273 15.2992L7.86323 15.0357L8.11276 14.7862H4.46543V13.6356H9.26379L10.717 12.1823H4.46543V11.0318H11.8675L13.5242 9.37482H4.4298V8.26194H14.6373V8.26197ZM5.48223 5.74332H14.79V6.85626H5.48223V5.74332ZM11.2471 14.7862L12.3976 13.6356H15.1772V14.7862H11.2471ZM18.0926 5.67741L18.7889 6.37357L8.96961 16.1928L8.27327 15.4964L18.0926 5.67741Z" fill="#F2F2F2"/>
<path d="M13.8516 12.1843L14.4382 11.5977L13.8516 12.1843Z" fill="#F2F2F2"/>
<path d="M18.0926 5.67697L8.27344 15.4961L8.96972 16.1924L18.7888 6.37325L18.0926 5.67697Z" fill="#4F4F4F"/>
<path d="M9.43045 16.606V16.6059L19.2497 6.7869L18.9862 6.52344L9.16699 16.3424L9.43045 16.606Z" fill="#1A1713"/>
<path d="M7.84726 15.3115C7.81464 15.2787 7.76806 15.264 7.72192 15.2715C7.67591 15.2791 7.63714 15.308 7.61643 15.3502L7.17947 16.2404L6.65137 17.3149L7.15192 17.8153L8.01651 17.3906L9.11676 16.8502C9.15865 16.8295 9.18772 16.7907 9.19547 16.7446C9.20264 16.6985 9.18822 16.6523 9.15507 16.6194L8.77611 16.2404L7.84726 15.3115Z" fill="#1A1713"/>
<path d="M6.35444 17.9213C6.32756 17.9767 6.33842 18.0428 6.38197 18.0867C6.42538 18.1302 6.49162 18.1412 6.54703 18.1141L7.15224 17.8168L6.65169 17.3164L6.61432 17.3921L6.35444 17.9213Z" fill="#1A1713"/>
<path d="M18.6371 4.26216L18.4563 4.44291L18.1509 4.74834L17.8232 5.0759L19.3903 6.64292L19.7181 6.31509L20.0231 6.00999L20.2043 5.82899C20.6371 5.39619 20.6366 4.69468 20.2043 4.26213C19.7714 3.82937 19.0699 3.8292 18.6371 4.26216Z" fill="#1A1713"/>
</g>
<defs>
<clipPath id="clip0_474_20504">
<rect width="24" height="24" fill="white"/>
</clipPath>
</defs>
</svg>
